<mxfile host="app.diagrams.net" agent="Mozilla/5.0 (X11; Linux x86_64) AppleWebKit/537.36 (KHTML, like Gecko) Chrome/130.0.0.0 Safari/537.36" version="24.8.3">
  <diagram name="Page-1" id="yh3LSzfdXJZ1UXKzzY_M">
    <mxGraphModel dx="1434" dy="783" grid="1" gridSize="10" guides="1" tooltips="1" connect="1" arrows="1" fold="1" page="1" pageScale="1" pageWidth="827" pageHeight="1169" math="0" shadow="0">
      <root>
        <mxCell id="0" />
        <mxCell id="1" parent="0" />
        <mxCell id="q2aVDOVyJW9dyp2MJ7Qh-1" value="1" style="ellipse;whiteSpace=wrap;html=1;aspect=fixed;fillColor=#FFB366;strokeWidth=2;" vertex="1" parent="1">
          <mxGeometry x="360" y="80" width="40" height="40" as="geometry" />
        </mxCell>
        <mxCell id="q2aVDOVyJW9dyp2MJ7Qh-2" value="2" style="ellipse;whiteSpace=wrap;html=1;aspect=fixed;fillColor=#B3D1FF;" vertex="1" parent="1">
          <mxGeometry x="280" y="160" width="40" height="40" as="geometry" />
        </mxCell>
        <mxCell id="q2aVDOVyJW9dyp2MJ7Qh-3" value="3" style="ellipse;whiteSpace=wrap;html=1;aspect=fixed;fillColor=#B3D1FF;" vertex="1" parent="1">
          <mxGeometry x="440" y="160" width="40" height="40" as="geometry" />
        </mxCell>
        <mxCell id="q2aVDOVyJW9dyp2MJ7Qh-4" value="4" style="ellipse;whiteSpace=wrap;html=1;aspect=fixed;fillColor=#B3D1FF;" vertex="1" parent="1">
          <mxGeometry x="240" y="240" width="40" height="40" as="geometry" />
        </mxCell>
        <mxCell id="q2aVDOVyJW9dyp2MJ7Qh-5" value="5" style="ellipse;whiteSpace=wrap;html=1;aspect=fixed;fillColor=#B3D1FF;" vertex="1" parent="1">
          <mxGeometry x="320" y="240" width="40" height="40" as="geometry" />
        </mxCell>
        <mxCell id="q2aVDOVyJW9dyp2MJ7Qh-6" value="6" style="ellipse;whiteSpace=wrap;html=1;aspect=fixed;fillColor=#B3D1FF;" vertex="1" parent="1">
          <mxGeometry x="400" y="240" width="40" height="40" as="geometry" />
        </mxCell>
        <mxCell id="q2aVDOVyJW9dyp2MJ7Qh-7" value="7" style="ellipse;whiteSpace=wrap;html=1;aspect=fixed;fillColor=#B3D1FF;" vertex="1" parent="1">
          <mxGeometry x="480" y="240" width="40" height="40" as="geometry" />
        </mxCell>
        <mxCell id="q2aVDOVyJW9dyp2MJ7Qh-8" value="" style="endArrow=none;html=1;rounded=0;" edge="1" parent="1" source="q2aVDOVyJW9dyp2MJ7Qh-1" target="q2aVDOVyJW9dyp2MJ7Qh-2">
          <mxGeometry width="50" height="50" relative="1" as="geometry" />
        </mxCell>
        <mxCell id="q2aVDOVyJW9dyp2MJ7Qh-9" value="" style="endArrow=none;html=1;rounded=0;" edge="1" parent="1" source="q2aVDOVyJW9dyp2MJ7Qh-1" target="q2aVDOVyJW9dyp2MJ7Qh-3">
          <mxGeometry width="50" height="50" relative="1" as="geometry" />
        </mxCell>
        <mxCell id="q2aVDOVyJW9dyp2MJ7Qh-10" value="" style="endArrow=none;html=1;rounded=0;" edge="1" parent="1" source="q2aVDOVyJW9dyp2MJ7Qh-2" target="q2aVDOVyJW9dyp2MJ7Qh-4">
          <mxGeometry width="50" height="50" relative="1" as="geometry" />
        </mxCell>
        <mxCell id="q2aVDOVyJW9dyp2MJ7Qh-11" value="" style="endArrow=none;html=1;rounded=0;" edge="1" parent="1" source="q2aVDOVyJW9dyp2MJ7Qh-2" target="q2aVDOVyJW9dyp2MJ7Qh-5">
          <mxGeometry width="50" height="50" relative="1" as="geometry" />
        </mxCell>
        <mxCell id="q2aVDOVyJW9dyp2MJ7Qh-12" value="" style="endArrow=none;html=1;rounded=0;" edge="1" parent="1" source="q2aVDOVyJW9dyp2MJ7Qh-3" target="q2aVDOVyJW9dyp2MJ7Qh-6">
          <mxGeometry width="50" height="50" relative="1" as="geometry" />
        </mxCell>
        <mxCell id="q2aVDOVyJW9dyp2MJ7Qh-13" value="" style="endArrow=none;html=1;rounded=0;" edge="1" parent="1" source="q2aVDOVyJW9dyp2MJ7Qh-3" target="q2aVDOVyJW9dyp2MJ7Qh-7">
          <mxGeometry width="50" height="50" relative="1" as="geometry" />
        </mxCell>
        <mxCell id="q2aVDOVyJW9dyp2MJ7Qh-14" value="" style="curved=1;endArrow=classic;html=1;rounded=0;dashed=1;strokeColor=#FF0000;strokeWidth=2;" edge="1" parent="1">
          <mxGeometry width="50" height="50" relative="1" as="geometry">
            <mxPoint x="380" y="100" as="sourcePoint" />
            <mxPoint x="300" y="160" as="targetPoint" />
            <Array as="points">
              <mxPoint x="340" y="130" />
            </Array>
          </mxGeometry>
        </mxCell>
        <mxCell id="q2aVDOVyJW9dyp2MJ7Qh-15" value="" style="curved=1;endArrow=classic;html=1;rounded=0;dashed=1;strokeColor=#FF0000;strokeWidth=2;" edge="1" parent="1">
          <mxGeometry width="50" height="50" relative="1" as="geometry">
            <mxPoint x="290" y="200" as="sourcePoint" />
            <mxPoint x="260" y="240" as="targetPoint" />
          </mxGeometry>
        </mxCell>
        <mxCell id="q2aVDOVyJW9dyp2MJ7Qh-16" value="" style="curved=1;endArrow=classic;html=1;rounded=0;dashed=1;strokeColor=#FF0000;strokeWidth=2;" edge="1" parent="1">
          <mxGeometry width="50" height="50" relative="1" as="geometry">
            <mxPoint x="280" y="260" as="sourcePoint" />
            <mxPoint x="320" y="260" as="targetPoint" />
          </mxGeometry>
        </mxCell>
        <mxCell id="q2aVDOVyJW9dyp2MJ7Qh-17" value="" style="curved=1;endArrow=classic;html=1;rounded=0;dashed=1;strokeColor=#FF0000;strokeWidth=2;" edge="1" parent="1">
          <mxGeometry width="50" height="50" relative="1" as="geometry">
            <mxPoint x="360" y="260" as="sourcePoint" />
            <mxPoint x="440" y="180" as="targetPoint" />
            <Array as="points">
              <mxPoint x="400" y="220" />
            </Array>
          </mxGeometry>
        </mxCell>
        <mxCell id="q2aVDOVyJW9dyp2MJ7Qh-18" value="" style="curved=1;endArrow=classic;html=1;rounded=0;dashed=1;strokeColor=#FF0000;strokeWidth=2;" edge="1" parent="1">
          <mxGeometry width="50" height="50" relative="1" as="geometry">
            <mxPoint x="460" y="200" as="sourcePoint" />
            <mxPoint x="420" y="240" as="targetPoint" />
          </mxGeometry>
        </mxCell>
        <mxCell id="q2aVDOVyJW9dyp2MJ7Qh-19" value="" style="curved=1;endArrow=classic;html=1;rounded=0;dashed=1;strokeColor=#FF0000;strokeWidth=2;" edge="1" parent="1">
          <mxGeometry width="50" height="50" relative="1" as="geometry">
            <mxPoint x="440" y="260" as="sourcePoint" />
            <mxPoint x="480" y="260" as="targetPoint" />
          </mxGeometry>
        </mxCell>
        <mxCell id="q2aVDOVyJW9dyp2MJ7Qh-20" value="1" style="text;html=1;strokeColor=none;fillColor=none;align=center;verticalAlign=middle;whiteSpace=wrap;rounded=0;fontColor=#FF0000;" vertex="1" parent="1">
          <mxGeometry x="330" y="110" width="20" height="20" as="geometry" />
        </mxCell>
        <mxCell id="q2aVDOVyJW9dyp2MJ7Qh-21" value="2" style="text;html=1;strokeColor=none;fillColor=none;align=center;verticalAlign=middle;whiteSpace=wrap;rounded=0;fontColor=#FF0000;" vertex="1" parent="1">
          <mxGeometry x="260" y="200" width="20" height="20" as="geometry" />
        </mxCell>
        <mxCell id="q2aVDOVyJW9dyp2MJ7Qh-22" value="3" style="text;html=1;strokeColor=none;fillColor=none;align=center;verticalAlign=middle;whiteSpace=wrap;rounded=0;fontColor=#FF0000;" vertex="1" parent="1">
          <mxGeometry x="290" y="240" width="20" height="20" as="geometry" />
        </mxCell>
        <mxCell id="q2aVDOVyJW9dyp2MJ7Qh-23" value="4" style="text;html=1;strokeColor=none;fillColor=none;align=center;verticalAlign=middle;whiteSpace=wrap;rounded=0;fontColor=#FF0000;" vertex="1" parent="1">
          <mxGeometry x="340" y="240" width="20" height="20" as="geometry" />
        </mxCell>
        <mxCell id="q2aVDOVyJW9dyp2MJ7Qh-24" value="5" style="text;html=1;strokeColor=none;fillColor=none;align=center;verticalAlign=middle;whiteSpace=wrap;rounded=0;fontColor=#FF0000;" vertex="1" parent="1">
          <mxGeometry x="420" y="200" width="20" height="20" as="geometry" />
        </mxCell>
        <mxCell id="q2aVDOVyJW9dyp2MJ7Qh-25" value="6" style="text;html=1;strokeColor=none;fillColor=none;align=center;verticalAlign=middle;whiteSpace=wrap;rounded=0;fontColor=#FF0000;" vertex="1" parent="1">
          <mxGeometry x="450" y="240" width="20" height="20" as="geometry" />
        </mxCell>
        <mxCell id="q2aVDOVyJW9dyp2MJ7Qh-26" value="7" style="text;html=1;strokeColor=none;fillColor=none;align=center;verticalAlign=middle;whiteSpace=wrap;rounded=0;fontColor=#FF0000;" vertex="1" parent="1">
          <mxGeometry x="500" y="240" width="20" height="20" as="geometry" />
        </mxCell>
      </root>
    </mxGraphModel>
  </diagram>
</mxfile>
